<?xml version="1.0" standalone="no"?>
<!DOCTYPE svg PUBLIC "-//W3C//DTD SVG 20010904//EN"
 "http://www.w3.org/TR/2001/REC-SVG-20010904/DTD/svg10.dtd">
<svg version="1.0" xmlns="http://www.w3.org/2000/svg"
 width="260.000000pt" height="260.000000pt" viewBox="0 0 260.000000 260.000000"
 preserveAspectRatio="xMidYMid meet">
<metadata>
Created by potrace 1.14, written by Peter Selinger 2001-2017
</metadata>
<g transform="translate(0.000000,260.000000) scale(0.100000,-0.100000)"
fill="#000000" stroke="none">
<path d="M1125 2590 c-561 -88 -980 -484 -1101 -1041 -26 -118 -26 -380 0
-498 59 -274 167 -474 360 -667 193 -193 393 -301 667 -360 118 -26 380 -26
498 0 274 59 474 167 667 360 193 193 301 393 360 667 26 118 26 380 0 498
-59 274 -167 474 -360 667 -189 189 -382 295 -646 355 -99 23 -350 33 -445 19z
m869 -434 c52 -22 67 -67 82 -246 7 -85 16 -171 20 -190 3 -19 10 -287 15
-595 5 -308 10 -581 12 -607 5 -114 -115 -118 -175 -6 -22 41 -23 55 -26 289
l-4 246 -101 -23 c-56 -13 -112 -26 -125 -29 l-23 -6 3 -217 c3 -195 1 -221
-15 -245 -24 -37 -87 -38 -121 -3 -26 25 -26 24 -45 317 -8 125 -12 153 -32
187 -22 38 -23 43 -9 74 17 39 17 69 6 464 l-9 302 23 12 c32 17 101 6 122
-20 22 -27 26 -71 38 -410 7 -202 14 -288 23 -297 9 -9 32 -8 108 7 52 10 112
25 132 34 36 14 37 17 39 68 4 148 -5 385 -23 574 -25 260 -23 304 11 321 31
16 34 16 74 -1z m-1376 -272 c56 -37 56 -39 55 -651 -1 -339 3 -565 8 -569 5
-3 135 44 288 105 302 120 350 132 392 90 21 -21 19 -44 -6 -84 -14 -23 -150
-92 -245 -125 -36 -12 -72 -25 -80 -28 -114 -40 -151 -56 -208 -90 -104 -61
-189 -102 -214 -102 -42 0 -85 35 -104 87 -21 53 -22 79 -16 668 2 176 0 395
-4 486 -4 91 -4 177 -1 191 12 47 80 58 135 22z"/>
</g>
</svg>
