<?xml version="1.0" standalone="no"?>
<!DOCTYPE svg PUBLIC "-//W3C//DTD SVG 20010904//EN"
 "http://www.w3.org/TR/2001/REC-SVG-20010904/DTD/svg10.dtd">
<svg version="1.0" xmlns="http://www.w3.org/2000/svg"
 width="260.000000pt" height="260.000000pt" viewBox="0 0 260.000000 260.000000"
 preserveAspectRatio="xMidYMid meet">
<metadata>
Created by potrace 1.14, written by Peter Selinger 2001-2017
</metadata>
<g transform="translate(0.000000,260.000000) scale(0.100000,-0.100000)"
fill="#000000" stroke="none">
<path d="M1105 2584 c-272 -41 -522 -169 -721 -368 -110 -110 -180 -207 -248
-343 -209 -418 -173 -910 96 -1311 66 -100 231 -264 333 -332 454 -305 1016
-305 1470 0 102 68 267 232 333 332 307 458 307 1018 0 1476 -66 100 -231 264
-333 332 -279 187 -609 263 -930 214z m883 -425 c59 -20 71 -57 94 -281 16
-159 22 -324 29 -753 5 -302 10 -573 12 -601 1 -39 -3 -57 -17 -73 -40 -44
-121 -11 -160 64 -19 37 -21 60 -24 283 -3 199 -6 242 -17 242 -12 0 -67 -12
-213 -45 l-23 -6 3 -217 c3 -194 1 -220 -15 -245 -24 -37 -87 -38 -122 -3 -26
26 -28 39 -44 302 -7 121 -13 159 -30 192 -25 48 -26 68 -7 108 11 24 12 68 5
234 -4 113 -8 273 -8 357 -1 171 0 173 74 173 48 0 82 -34 89 -91 3 -24 11
-177 16 -339 8 -207 14 -299 23 -307 10 -10 33 -8 111 8 55 11 114 26 133 34
l33 14 0 203 c0 173 -18 449 -45 666 -4 36 -1 47 20 68 27 27 38 29 83 13z
m-1364 -277 c50 -45 50 -47 51 -649 0 -309 3 -564 7 -568 6 -7 515 190 532
206 17 15 120 10 144 -7 27 -19 28 -39 2 -81 -24 -40 -126 -90 -331 -163 -79
-29 -173 -69 -209 -90 -214 -124 -259 -128 -313 -26 -22 41 -22 44 -19 556 1
283 -2 574 -6 645 -9 134 -4 170 26 193 22 17 89 8 116 -16z"/>
</g>
</svg>
